# Blender 4.1.1
# www.blender.org
mtllib enemy.mtl
o 円錐.004
v 0.000000 -0.220273 0.300107
v -0.042944 -0.216044 0.300104
v -0.084238 -0.203518 0.300095
v -0.122294 -0.183176 0.300081
v -0.155651 -0.155801 0.300063
v -0.183026 -0.122444 0.300040
v -0.203368 -0.084388 0.300014
v -0.215894 -0.043094 0.299986
v -0.220123 -0.000150 0.299956
v -0.215894 0.042794 0.299927
v -0.203368 0.084088 0.299899
v -0.183026 0.122144 0.299873
v -0.155651 0.155501 0.299850
v -0.122294 0.182876 0.299832
v -0.084238 0.203217 0.299818
v -0.042944 0.215744 0.299809
v 0.000000 0.219973 0.299806
v 0.042944 0.215744 0.299809
v 0.084238 0.203217 0.299818
v 0.122294 0.182876 0.299832
v 0.155651 0.155501 0.299850
v 0.183026 0.122144 0.299873
v 0.203368 0.084088 0.299899
v 0.215894 0.042794 0.299927
v 0.220123 -0.000150 0.299956
v 0.215894 -0.043094 0.299986
v 0.203368 -0.084388 0.300014
v 0.183026 -0.122444 0.300040
v 0.155651 -0.155801 0.300063
v 0.122294 -0.183176 0.300081
v 0.084238 -0.203518 0.300095
v 0.042944 -0.216044 0.300104
v 0.000000 0.000150 0.740203
v 0.000000 -0.430196 -0.000000
v -0.311293 -0.192392 -0.226165
v 0.118901 -0.192392 -0.365946
v 0.384779 -0.192391 -0.000000
v 0.118901 -0.192392 0.365946
v -0.311293 -0.192392 0.226165
v -0.118901 0.192392 -0.365946
v 0.311293 0.192392 -0.226165
v 0.311293 0.192392 0.226165
v -0.118901 0.192392 0.365946
v -0.384779 0.192391 0.000000
v 0.000000 0.430196 -0.000000
v 0.069888 -0.365948 -0.215096
v -0.182972 -0.365948 -0.132936
v -0.113085 -0.226170 -0.348034
v -0.365946 -0.226170 0.000000
v -0.182972 -0.365948 0.132936
v 0.226167 -0.365947 -0.000000
v 0.296057 -0.226170 -0.215097
v 0.069888 -0.365948 0.215096
v 0.296057 -0.226170 0.215097
v -0.113085 -0.226170 0.348034
v -0.409142 -0.000000 -0.132936
v -0.409142 0.000000 0.132936
v 0.000000 -0.000000 -0.430196
v -0.252863 0.000000 -0.348036
v 0.409142 -0.000000 -0.132936
v 0.252863 0.000000 -0.348036
v 0.252863 -0.000000 0.348036
v 0.409142 0.000000 0.132936
v -0.252863 -0.000000 0.348036
v 0.000000 -0.000000 0.430196
v -0.296057 0.226170 -0.215097
v 0.113085 0.226170 -0.348034
v 0.365946 0.226170 -0.000000
v 0.113085 0.226170 0.348034
v -0.296057 0.226170 0.215097
v -0.069888 0.365948 -0.215096
v -0.226167 0.365947 0.000000
v 0.182972 0.365948 -0.132936
v 0.182972 0.365948 0.132936
v -0.069888 0.365948 0.215096
v 0.000000 0.220123 -0.305309
v -0.042944 0.215894 -0.305309
v -0.084238 0.203368 -0.305309
v -0.122294 0.183026 -0.305309
v -0.155651 0.155651 -0.305309
v -0.183026 0.122294 -0.305309
v -0.203368 0.084238 -0.305309
v -0.215894 0.042944 -0.305309
v -0.220123 0.000000 -0.305309
v -0.215894 -0.042944 -0.305309
v -0.203368 -0.084238 -0.305309
v -0.183026 -0.122294 -0.305309
v -0.155651 -0.155651 -0.305309
v -0.122294 -0.183026 -0.305309
v -0.084238 -0.203368 -0.305309
v -0.042944 -0.215894 -0.305309
v 0.000000 -0.220123 -0.305309
v 0.042944 -0.215894 -0.305309
v 0.084238 -0.203368 -0.305309
v 0.122294 -0.183026 -0.305309
v 0.155651 -0.155651 -0.305309
v 0.183026 -0.122294 -0.305309
v 0.203368 -0.084238 -0.305309
v 0.215894 -0.042944 -0.305309
v 0.220123 0.000000 -0.305309
v 0.215894 0.042944 -0.305309
v 0.203368 0.084238 -0.305309
v 0.183026 0.122294 -0.305309
v 0.155651 0.155651 -0.305309
v 0.122294 0.183026 -0.305309
v 0.084238 0.203368 -0.305309
v 0.042944 0.215894 -0.305309
v 0.000000 -0.000000 -0.745556
v 0.000000 0.220123 -0.307510
v -0.042944 0.215894 -0.307511
v -0.084238 0.203368 -0.307511
v -0.122294 0.183026 -0.307510
v -0.155651 0.155651 -0.307511
v -0.183026 0.122294 -0.307511
v -0.203368 0.084238 -0.307510
v -0.215894 0.042944 -0.307511
v -0.220123 0.000000 -0.307510
v -0.215894 -0.042944 -0.307511
v -0.203368 -0.084238 -0.307510
v -0.183026 -0.122294 -0.307510
v -0.155651 -0.155651 -0.307510
v -0.122294 -0.183026 -0.307510
v -0.084238 -0.203368 -0.307510
v -0.042944 -0.215894 -0.307510
v 0.000000 -0.220123 -0.307511
v 0.042944 -0.215894 -0.307510
v 0.084238 -0.203368 -0.307510
v 0.122294 -0.183026 -0.307510
v 0.155651 -0.155651 -0.307510
v 0.183026 -0.122294 -0.307510
v 0.203368 -0.084238 -0.307510
v 0.215894 -0.042944 -0.307511
v 0.220123 0.000000 -0.307510
v 0.215894 0.042944 -0.307511
v 0.203368 0.084238 -0.307510
v 0.183026 0.122294 -0.307511
v 0.155651 0.155651 -0.307511
v 0.122294 0.183026 -0.307510
v 0.084238 0.203368 -0.307511
v 0.042944 0.215894 -0.307511
v 0.000000 -0.000000 -0.747758
v 0.000000 0.252888 0.220123
v -0.042944 0.252888 0.215894
v -0.084238 0.252888 0.203368
v -0.122294 0.252888 0.183026
v -0.155651 0.252888 0.155651
v -0.183026 0.252888 0.122294
v -0.203368 0.252888 0.084238
v -0.215894 0.252888 0.042944
v -0.220123 0.252888 -0.000000
v -0.215894 0.252888 -0.042944
v -0.203368 0.252888 -0.084238
v -0.183026 0.252888 -0.122294
v -0.155651 0.252888 -0.155651
v -0.122294 0.252888 -0.183026
v -0.084238 0.252888 -0.203368
v -0.042944 0.252888 -0.215894
v 0.000000 0.252888 -0.220124
v 0.042944 0.252888 -0.215894
v 0.084238 0.252888 -0.203368
v 0.122294 0.252888 -0.183026
v 0.155651 0.252888 -0.155651
v 0.183026 0.252888 -0.122294
v 0.203368 0.252888 -0.084238
v 0.215894 0.252888 -0.042944
v 0.220123 0.252888 -0.000000
v 0.215894 0.252888 0.042944
v 0.203368 0.252888 0.084238
v 0.183026 0.252888 0.122294
v 0.155651 0.252888 0.155651
v 0.122294 0.252888 0.183026
v 0.084238 0.252888 0.203368
v 0.042944 0.252888 0.215894
v 0.000000 0.693135 -0.000000
v 0.000000 -0.222565 -0.220123
v -0.042944 -0.222565 -0.215894
v -0.084238 -0.222565 -0.203368
v -0.122294 -0.222565 -0.183026
v -0.155651 -0.222565 -0.155651
v -0.183026 -0.222565 -0.122294
v -0.203368 -0.222565 -0.084238
v -0.215894 -0.222565 -0.042944
v -0.220123 -0.222565 0.000000
v -0.215894 -0.222565 0.042944
v -0.203368 -0.222565 0.084238
v -0.183026 -0.222565 0.122294
v -0.155651 -0.222565 0.155651
v -0.122294 -0.222565 0.183026
v -0.084238 -0.222565 0.203368
v -0.042944 -0.222565 0.215894
v 0.000000 -0.222565 0.220124
v 0.042944 -0.222565 0.215894
v 0.084238 -0.222565 0.203368
v 0.122294 -0.222565 0.183026
v 0.155651 -0.222565 0.155651
v 0.183026 -0.222565 0.122294
v 0.203368 -0.222565 0.084238
v 0.215894 -0.222565 0.042944
v 0.220123 -0.222565 0.000000
v 0.215894 -0.222565 -0.042944
v 0.203368 -0.222565 -0.084238
v 0.183026 -0.222565 -0.122294
v 0.155651 -0.222565 -0.155651
v 0.122294 -0.222565 -0.183026
v 0.084238 -0.222565 -0.203368
v 0.042944 -0.222565 -0.215894
v 0.000000 -0.662812 0.000000
vn -0.0878 -0.8907 0.4461
vn -0.2599 -0.8564 0.4461
vn -0.4220 -0.7893 0.4460
vn -0.5680 -0.6918 0.4460
vn -0.6921 -0.5677 0.4459
vn -0.7896 -0.4217 0.4458
vn -0.8567 -0.2596 0.4457
vn -0.8910 -0.0874 0.4455
vn -0.8910 0.0881 0.4454
vn -0.8567 0.2602 0.4453
vn -0.7896 0.4223 0.4452
vn -0.6921 0.5683 0.4451
vn -0.5680 0.6924 0.4450
vn -0.4220 0.7899 0.4449
vn -0.2599 0.8570 0.4449
vn -0.0878 0.8913 0.4449
vn 0.0878 0.8913 0.4449
vn 0.2599 0.8570 0.4449
vn 0.4220 0.7899 0.4449
vn 0.5680 0.6924 0.4450
vn 0.6921 0.5683 0.4451
vn 0.7896 0.4223 0.4452
vn 0.8567 0.2602 0.4453
vn 0.8910 0.0881 0.4454
vn 0.8910 -0.0874 0.4455
vn 0.8567 -0.2596 0.4457
vn 0.7896 -0.4217 0.4458
vn 0.6921 -0.5677 0.4459
vn 0.5680 -0.6918 0.4460
vn 0.4220 -0.7893 0.4460
vn -0.0000 -0.0007 -1.0000
vn 0.2599 -0.8564 0.4461
vn 0.0878 -0.8907 0.4461
vn -0.1024 -0.9435 -0.3151
vn -0.7002 -0.6617 -0.2680
vn 0.2680 -0.9435 -0.1947
vn 0.2680 -0.9435 0.1947
vn -0.1024 -0.9435 0.3151
vn -0.9050 -0.3304 -0.2680
vn -0.0247 -0.3304 -0.9435
vn 0.8897 -0.3304 -0.3151
vn 0.5746 -0.3304 0.7488
vn -0.5346 -0.3304 0.7779
vn -0.8026 -0.1256 -0.5831
vn 0.3066 -0.1256 -0.9435
vn 0.9921 -0.1256 -0.0000
vn 0.3066 -0.1256 0.9435
vn -0.8026 -0.1256 0.5831
vn -0.4089 0.6617 -0.6284
vn 0.4713 0.6617 -0.5831
vn 0.7002 0.6617 0.2680
vn -0.0385 0.6617 0.7488
vn -0.7240 0.6617 0.1947
vn -0.2680 0.9435 0.1947
vn -0.4911 0.7947 0.3568
vn -0.4089 0.6617 0.6284
vn 0.1024 0.9435 0.3151
vn 0.1876 0.7947 0.5773
vn 0.4713 0.6617 0.5831
vn 0.3313 0.9435 -0.0000
vn 0.6071 0.7947 -0.0000
vn 0.7002 0.6617 -0.2680
vn 0.1024 0.9435 -0.3151
vn 0.1876 0.7947 -0.5773
vn -0.0385 0.6617 -0.7488
vn -0.2680 0.9435 -0.1947
vn -0.4911 0.7947 -0.3568
vn -0.7240 0.6617 -0.1947
vn -0.8897 0.3304 0.3151
vn -0.7947 0.1876 0.5773
vn -0.5746 0.3304 0.7488
vn 0.0247 0.3304 0.9435
vn 0.3035 0.1876 0.9342
vn 0.5346 0.3304 0.7779
vn 0.9050 0.3304 0.2680
vn 0.9822 0.1876 -0.0000
vn 0.9050 0.3304 -0.2680
vn 0.5346 0.3304 -0.7779
vn 0.3035 0.1876 -0.9342
vn 0.0247 0.3304 -0.9435
vn -0.5746 0.3304 -0.7488
vn -0.7947 0.1876 -0.5773
vn -0.8897 0.3304 -0.3151
vn -0.3066 0.1256 0.9435
vn -0.3035 -0.1876 0.9342
vn -0.0247 -0.3304 0.9435
vn 0.8026 0.1256 0.5831
vn 0.7947 -0.1876 0.5773
vn 0.8897 -0.3304 0.3151
vn 0.8026 0.1256 -0.5831
vn 0.7947 -0.1876 -0.5773
vn 0.5746 -0.3304 -0.7488
vn -0.3066 0.1256 -0.9435
vn -0.3035 -0.1876 -0.9342
vn -0.5346 -0.3304 -0.7779
vn -0.9921 0.1256 -0.0000
vn -0.9822 -0.1876 -0.0000
vn -0.9050 -0.3304 0.2680
vn -0.4713 -0.6617 0.5831
vn -0.1876 -0.7947 0.5773
vn 0.0385 -0.6617 0.7488
vn 0.4089 -0.6617 0.6284
vn 0.4911 -0.7947 0.3568
vn 0.7240 -0.6617 0.1947
vn 0.7240 -0.6617 -0.1947
vn 0.4911 -0.7947 -0.3568
vn 0.4089 -0.6617 -0.6284
vn -0.7002 -0.6617 0.2680
vn -0.6071 -0.7947 -0.0000
vn -0.3313 -0.9435 -0.0000
vn 0.0385 -0.6617 -0.7488
vn -0.1876 -0.7947 -0.5773
vn -0.4713 -0.6617 -0.5831
vn -0.0878 0.8910 -0.4455
vn -0.2599 0.8567 -0.4455
vn -0.4220 0.7896 -0.4455
vn -0.5680 0.6921 -0.4455
vn -0.6921 0.5680 -0.4455
vn -0.7896 0.4220 -0.4455
vn -0.8567 0.2599 -0.4455
vn -0.8910 0.0878 -0.4455
vn -0.8910 -0.0878 -0.4455
vn -0.8567 -0.2599 -0.4455
vn -0.7896 -0.4220 -0.4455
vn -0.6921 -0.5680 -0.4455
vn -0.5680 -0.6921 -0.4455
vn -0.4220 -0.7896 -0.4455
vn -0.2599 -0.8567 -0.4455
vn -0.0878 -0.8910 -0.4455
vn 0.0878 -0.8910 -0.4455
vn 0.2599 -0.8567 -0.4455
vn 0.4220 -0.7896 -0.4455
vn 0.5680 -0.6921 -0.4455
vn 0.6921 -0.5680 -0.4455
vn 0.7896 -0.4220 -0.4455
vn 0.8567 -0.2599 -0.4455
vn 0.8910 -0.0878 -0.4455
vn 0.8910 0.0878 -0.4455
vn 0.8567 0.2599 -0.4455
vn 0.7896 0.4220 -0.4455
vn 0.6921 0.5680 -0.4455
vn 0.5680 0.6921 -0.4455
vn 0.4220 0.7896 -0.4455
vn -0.0000 -0.0000 1.0000
vn 0.2599 0.8567 -0.4455
vn 0.0878 0.8910 -0.4455
vn -0.0878 0.4455 0.8910
vn -0.2599 0.4455 0.8567
vn -0.4220 0.4455 0.7896
vn -0.5680 0.4455 0.6921
vn -0.6921 0.4455 0.5680
vn -0.7896 0.4455 0.4220
vn -0.8567 0.4455 0.2599
vn -0.8910 0.4455 0.0878
vn -0.8910 0.4455 -0.0878
vn -0.8567 0.4455 -0.2599
vn -0.7896 0.4455 -0.4220
vn -0.6921 0.4455 -0.5680
vn -0.5680 0.4455 -0.6921
vn -0.4220 0.4455 -0.7896
vn -0.2599 0.4455 -0.8567
vn -0.0878 0.4455 -0.8910
vn 0.0878 0.4455 -0.8910
vn 0.2599 0.4455 -0.8567
vn 0.4220 0.4455 -0.7896
vn 0.5680 0.4455 -0.6921
vn 0.6921 0.4455 -0.5680
vn 0.7896 0.4455 -0.4220
vn 0.8567 0.4455 -0.2599
vn 0.8910 0.4455 -0.0878
vn 0.8910 0.4455 0.0878
vn 0.8567 0.4455 0.2599
vn 0.7896 0.4455 0.4220
vn 0.6921 0.4455 0.5680
vn 0.5680 0.4455 0.6921
vn 0.4220 0.4455 0.7896
vn -0.0000 -1.0000 -0.0000
vn 0.2599 0.4455 0.8567
vn 0.0878 0.4455 0.8910
vn -0.0878 -0.4455 -0.8910
vn -0.2599 -0.4455 -0.8567
vn -0.4220 -0.4455 -0.7896
vn -0.5680 -0.4455 -0.6921
vn -0.6921 -0.4455 -0.5680
vn -0.7896 -0.4455 -0.4220
vn -0.8567 -0.4455 -0.2599
vn -0.8910 -0.4455 -0.0878
vn -0.8910 -0.4455 0.0878
vn -0.8567 -0.4455 0.2599
vn -0.7896 -0.4455 0.4220
vn -0.6921 -0.4455 0.5680
vn -0.5680 -0.4455 0.6921
vn -0.4220 -0.4455 0.7896
vn -0.2599 -0.4455 0.8567
vn -0.0878 -0.4455 0.8910
vn 0.0878 -0.4455 0.8910
vn 0.2599 -0.4455 0.8567
vn 0.4220 -0.4455 0.7896
vn 0.5680 -0.4455 0.6921
vn 0.6921 -0.4455 0.5680
vn 0.7896 -0.4455 0.4220
vn 0.8567 -0.4455 0.2599
vn 0.8910 -0.4455 0.0878
vn 0.8910 -0.4455 -0.0878
vn 0.8567 -0.4455 -0.2599
vn 0.7896 -0.4455 -0.4220
vn 0.6921 -0.4455 -0.5680
vn 0.5680 -0.4455 -0.6921
vn 0.4220 -0.4455 -0.7896
vn -0.0000 1.0000 -0.0000
vn 0.2599 -0.4455 -0.8567
vn 0.0878 -0.4455 -0.8910
vt 0.713677 0.813043
vt 0.823899 0.823899
vt 0.713677 0.834755
vt 0.717912 0.856050
vt 0.726221 0.876109
vt 0.738284 0.894162
vt 0.753636 0.909515
vt 0.771689 0.921577
vt 0.791748 0.929886
vt 0.813043 0.934122
vt 0.834755 0.934122
vt 0.856050 0.929886
vt 0.876109 0.921577
vt 0.894162 0.909515
vt 0.909515 0.894162
vt 0.921577 0.876109
vt 0.929886 0.856050
vt 0.934122 0.834755
vt 0.934122 0.813043
vt 0.929886 0.791749
vt 0.921577 0.771689
vt 0.909515 0.753636
vt 0.894162 0.738284
vt 0.876109 0.726221
vt 0.856050 0.717912
vt 0.834755 0.713677
vt 0.813043 0.713677
vt 0.791749 0.717912
vt 0.771689 0.726221
vt 0.753636 0.738284
vt 0.738284 0.753636
vt 0.726221 0.771689
vt 0.754882 0.556311
vt 0.724534 0.456269
vt 0.824576 0.425921
vt 0.717912 0.791748
vt 0.451747 0.177321
vt 0.380623 0.223885
vt 0.382668 0.127774
vt 0.300720 0.253199
vt 0.379853 0.284548
vt 0.304055 0.332045
vt 0.451746 0.796128
vt 0.385056 0.848832
vt 0.378538 0.752930
vt 0.447555 0.647968
vt 0.377218 0.695733
vt 0.377640 0.599588
vt 0.448465 0.490687
vt 0.378006 0.538266
vt 0.378679 0.442126
vt 0.233889 0.292073
vt 0.304085 0.095085
vt 0.305915 0.174218
vt 0.234876 0.132322
vt 0.297729 0.726177
vt 0.304797 0.806119
vt 0.230680 0.767208
vt 0.298422 0.568451
vt 0.301941 0.647329
vt 0.231667 0.607459
vt 0.299525 0.410831
vt 0.302918 0.489668
vt 0.232778 0.449766
vt 0.234489 0.212929
vt 0.236583 0.043266
vt 0.231067 0.686603
vt 0.232219 0.528588
vt 0.233337 0.370944
vt 0.167826 0.173353
vt 0.163614 0.252202
vt 0.088336 0.203798
vt 0.156938 0.013263
vt 0.160758 0.093411
vt 0.080499 0.050698
vt 0.164836 0.646333
vt 0.159641 0.725313
vt 0.084933 0.675647
vt 0.166031 0.488701
vt 0.161501 0.567487
vt 0.086433 0.518846
vt 0.167134 0.331080
vt 0.162638 0.409862
vt 0.087550 0.361265
vt 0.086877 0.457406
vt 0.017090 0.408845
vt 0.085704 0.614985
vt 0.015946 0.566383
vt 0.082888 0.771757
vt 0.013809 0.722210
vt 0.161471 0.804445
vt 0.087016 0.146600
vt 0.013809 0.103402
vt 0.087916 0.299943
vt 0.018000 0.251563
vt 0.228973 0.856264
vt 0.308617 0.886267
vt 0.379124 0.380686
vt 0.449611 0.333149
vt 0.671972 0.312422
vt 0.777959 0.280271
vt 0.680281 0.332481
vt 0.692343 0.350534
vt 0.707696 0.365886
vt 0.725749 0.377949
vt 0.745808 0.386258
vt 0.767103 0.390493
vt 0.788815 0.390493
vt 0.810109 0.386258
vt 0.830169 0.377949
vt 0.848221 0.365886
vt 0.863574 0.350534
vt 0.875637 0.332481
vt 0.883945 0.312422
vt 0.888181 0.291127
vt 0.888181 0.269415
vt 0.883945 0.248120
vt 0.875637 0.228061
vt 0.863574 0.210008
vt 0.848222 0.194656
vt 0.830169 0.182593
vt 0.810110 0.174284
vt 0.788815 0.170048
vt 0.767103 0.170048
vt 0.745808 0.174284
vt 0.725749 0.182593
vt 0.707696 0.194656
vt 0.692343 0.210008
vt 0.680281 0.228061
vt 0.671972 0.248120
vt 0.667736 0.269415
vt 0.108682 0.960007
vt 0.016483 0.910726
vt 0.065765 0.818526
vt 0.667736 0.291127
vt 0.455262 0.423206
vt 0.565484 0.412350
vt 0.459498 0.444500
vt 0.467806 0.464560
vt 0.479869 0.482612
vt 0.495222 0.497965
vt 0.513274 0.510028
vt 0.533334 0.518336
vt 0.554628 0.522572
vt 0.576340 0.522572
vt 0.597635 0.518336
vt 0.617694 0.510028
vt 0.635747 0.497965
vt 0.651100 0.482612
vt 0.663162 0.464560
vt 0.671471 0.444500
vt 0.675707 0.423206
vt 0.675707 0.401494
vt 0.671471 0.380199
vt 0.663162 0.360140
vt 0.651100 0.342087
vt 0.635747 0.326734
vt 0.617694 0.314672
vt 0.597635 0.306363
vt 0.576340 0.302127
vt 0.554629 0.302127
vt 0.533334 0.306363
vt 0.513274 0.314672
vt 0.495222 0.326734
vt 0.479869 0.342087
vt 0.467807 0.360140
vt 0.459498 0.380199
vt 0.938951 0.065765
vt 0.889669 0.157964
vt 0.797470 0.108682
vt 0.455262 0.401494
vt 0.694849 0.112452
vt 0.584626 0.123308
vt 0.690613 0.091157
vt 0.682304 0.071098
vt 0.670242 0.053045
vt 0.654889 0.037693
vt 0.636836 0.025630
vt 0.616777 0.017321
vt 0.595482 0.013085
vt 0.573770 0.013085
vt 0.552476 0.017321
vt 0.532416 0.025630
vt 0.514363 0.037692
vt 0.499011 0.053045
vt 0.486948 0.071098
vt 0.478639 0.091157
vt 0.474404 0.112452
vt 0.474404 0.134164
vt 0.478639 0.155459
vt 0.486948 0.175518
vt 0.499011 0.193571
vt 0.514363 0.208923
vt 0.532416 0.220986
vt 0.552475 0.229295
vt 0.573770 0.233530
vt 0.595482 0.233530
vt 0.616777 0.229295
vt 0.636836 0.220986
vt 0.654889 0.208923
vt 0.670241 0.193571
vt 0.682304 0.175518
vt 0.690613 0.155459
vt 0.971295 0.583955
vt 0.961048 0.687996
vt 0.857007 0.677749
vt 0.694849 0.134164
vt 0.636938 0.758017
vt 0.647794 0.647794
vt 0.658650 0.758017
vt 0.679945 0.753781
vt 0.700004 0.745472
vt 0.718057 0.733410
vt 0.733410 0.718057
vt 0.745472 0.700004
vt 0.753781 0.679945
vt 0.758017 0.658650
vt 0.758017 0.636938
vt 0.753781 0.615644
vt 0.745472 0.595584
vt 0.733410 0.577532
vt 0.718057 0.562179
vt 0.700004 0.550116
vt 0.679945 0.541808
vt 0.658650 0.537572
vt 0.636938 0.537572
vt 0.615644 0.541808
vt 0.595584 0.550116
vt 0.577532 0.562179
vt 0.562179 0.577532
vt 0.550116 0.595584
vt 0.541808 0.615644
vt 0.537572 0.636938
vt 0.537572 0.658650
vt 0.541808 0.679945
vt 0.550116 0.700004
vt 0.562179 0.718057
vt 0.577532 0.733410
vt 0.595584 0.745472
vt 0.483347 0.872431
vt 0.513694 0.772388
vt 0.613737 0.802736
vt 0.615644 0.753781
vt 0.836626 0.433972
vt 0.846873 0.444219
vt 0.854924 0.456269
vt 0.860470 0.469657
vt 0.863297 0.483870
vt 0.863297 0.498362
vt 0.860470 0.512575
vt 0.854924 0.525964
vt 0.846873 0.538013
vt 0.836626 0.548260
vt 0.824576 0.556311
vt 0.811188 0.561857
vt 0.796975 0.564684
vt 0.782483 0.564684
vt 0.768270 0.561857
vt 0.742832 0.548260
vt 0.732585 0.538013
vt 0.724534 0.525964
vt 0.718988 0.512575
vt 0.716161 0.498362
vt 0.716161 0.483871
vt 0.718988 0.469657
vt 0.732585 0.444220
vt 0.742832 0.433972
vt 0.754881 0.425921
vt 0.768270 0.420376
vt 0.782483 0.417548
vt 0.796975 0.417548
vt 0.811188 0.420376
vt 0.079978 0.815699
vt 0.094469 0.815699
vt 0.108682 0.818526
vt 0.122071 0.824071
vt 0.134120 0.832123
vt 0.157964 0.867808
vt 0.144367 0.842370
vt 0.152419 0.854419
vt 0.160791 0.882021
vt 0.160791 0.896512
vt 0.157964 0.910725
vt 0.152419 0.924114
vt 0.144367 0.936163
vt 0.134120 0.946410
vt 0.122071 0.954462
vt 0.094469 0.962834
vt 0.079978 0.962834
vt 0.065765 0.960007
vt 0.052376 0.954462
vt 0.040327 0.946410
vt 0.030080 0.936163
vt 0.022028 0.924114
vt 0.013656 0.896512
vt 0.013656 0.882021
vt 0.016483 0.867808
vt 0.022028 0.854419
vt 0.030080 0.842370
vt 0.040327 0.832123
vt 0.052376 0.824071
vt 0.794643 0.094469
vt 0.794643 0.079978
vt 0.797470 0.065765
vt 0.803015 0.052376
vt 0.811067 0.040327
vt 0.821314 0.030080
vt 0.833363 0.022028
vt 0.846752 0.016483
vt 0.860965 0.013656
vt 0.875456 0.013656
vt 0.889669 0.016483
vt 0.903058 0.022028
vt 0.915107 0.030080
vt 0.925354 0.040327
vt 0.933406 0.052376
vt 0.941778 0.079978
vt 0.941778 0.094469
vt 0.938951 0.108682
vt 0.933406 0.122071
vt 0.925354 0.134120
vt 0.915107 0.144367
vt 0.903058 0.152419
vt 0.875456 0.160791
vt 0.833363 0.152419
vt 0.860965 0.160791
vt 0.846752 0.157964
vt 0.821314 0.144367
vt 0.811067 0.134120
vt 0.803015 0.122071
vt 0.979346 0.596004
vt 0.987719 0.638098
vt 0.984892 0.609393
vt 0.987719 0.623606
vt 0.984892 0.652311
vt 0.979346 0.665699
vt 0.971295 0.677749
vt 0.948998 0.696047
vt 0.935610 0.701592
vt 0.921397 0.704420
vt 0.906905 0.704420
vt 0.892692 0.701592
vt 0.879304 0.696047
vt 0.867254 0.687996
vt 0.848956 0.665699
vt 0.843410 0.652311
vt 0.840583 0.638098
vt 0.840583 0.623606
vt 0.843410 0.609393
vt 0.848956 0.596004
vt 0.857007 0.583955
vt 0.867254 0.573708
vt 0.879303 0.565657
vt 0.892692 0.560111
vt 0.906905 0.557284
vt 0.921397 0.557284
vt 0.935610 0.560111
vt 0.948998 0.565657
vt 0.961048 0.573708
vt 0.619283 0.816125
vt 0.622110 0.830338
vt 0.622110 0.844829
vt 0.619283 0.859043
vt 0.613737 0.872431
vt 0.605686 0.884480
vt 0.595439 0.894728
vt 0.583389 0.902779
vt 0.570001 0.908324
vt 0.555788 0.911151
vt 0.541296 0.911151
vt 0.527083 0.908324
vt 0.513694 0.902779
vt 0.501645 0.894727
vt 0.491398 0.884480
vt 0.477801 0.859043
vt 0.474974 0.844829
vt 0.474974 0.830338
vt 0.477801 0.816124
vt 0.483347 0.802736
vt 0.491398 0.790687
vt 0.501645 0.780440
vt 0.527083 0.766843
vt 0.541296 0.764016
vt 0.555788 0.764016
vt 0.570001 0.766843
vt 0.583389 0.772388
vt 0.595439 0.780440
vt 0.605686 0.790687
s 0
usemtl マテリアル
f 1/1/1 33/2/1 2/3/1
f 2/3/2 33/2/2 3/4/2
f 3/4/3 33/2/3 4/5/3
f 4/5/4 33/2/4 5/6/4
f 5/6/5 33/2/5 6/7/5
f 6/7/6 33/2/6 7/8/6
f 7/8/7 33/2/7 8/9/7
f 8/9/8 33/2/8 9/10/8
f 9/10/9 33/2/9 10/11/9
f 10/11/10 33/2/10 11/12/10
f 11/12/11 33/2/11 12/13/11
f 12/13/12 33/2/12 13/14/12
f 13/14/13 33/2/13 14/15/13
f 14/15/14 33/2/14 15/16/14
f 15/16/15 33/2/15 16/17/15
f 16/17/16 33/2/16 17/18/16
f 17/18/17 33/2/17 18/19/17
f 18/19/18 33/2/18 19/20/18
f 19/20/19 33/2/19 20/21/19
f 20/21/20 33/2/20 21/22/20
f 21/22/21 33/2/21 22/23/21
f 22/23/22 33/2/22 23/24/22
f 23/24/23 33/2/23 24/25/23
f 24/25/24 33/2/24 25/26/24
f 25/26/25 33/2/25 26/27/25
f 26/27/26 33/2/26 27/28/26
f 27/28/27 33/2/27 28/29/27
f 28/29/28 33/2/28 29/30/28
f 29/30/29 33/2/29 30/31/29
f 30/31/30 33/2/30 31/32/30
f 16/33/31 24/34/31 32/35/31
f 31/32/32 33/2/32 32/36/32
f 32/36/33 33/2/33 1/1/33
f 34/37/34 47/38/34 46/39/34
f 35/40/35 47/41/35 49/42/35
f 34/43/36 46/44/36 51/45/36
f 34/46/37 51/47/37 53/48/37
f 34/49/38 53/50/38 50/51/38
f 35/40/39 49/42/39 56/52/39
f 36/53/40 48/54/40 58/55/40
f 37/56/41 52/57/41 60/58/41
f 38/59/42 54/60/42 62/61/42
f 39/62/43 55/63/43 64/64/43
f 35/40/44 56/52/44 59/65/44
f 36/53/45 58/55/45 61/66/45
f 37/56/46 60/58/46 63/67/46
f 38/59/47 62/61/47 65/68/47
f 39/62/48 64/64/48 57/69/48
f 40/70/49 66/71/49 71/72/49
f 41/73/50 67/74/50 73/75/50
f 42/76/51 68/77/51 74/78/51
f 43/79/52 69/80/52 75/81/52
f 44/82/53 70/83/53 72/84/53
f 72/84/54 75/85/54 45/86/54
f 72/84/55 70/83/55 75/85/55
f 70/83/56 43/79/56 75/85/56
f 75/81/57 74/87/57 45/88/57
f 75/81/58 69/80/58 74/87/58
f 69/80/59 42/76/59 74/87/59
f 74/78/60 73/89/60 45/90/60
f 74/78/61 68/77/61 73/89/61
f 68/77/62 41/91/62 73/89/62
f 73/75/63 71/92/63 45/93/63
f 73/75/64 67/74/64 71/92/64
f 67/74/65 40/70/65 71/92/65
f 71/72/66 72/94/66 45/95/66
f 71/72/67 66/71/67 72/94/67
f 66/71/68 44/82/68 72/94/68
f 57/69/69 70/83/69 44/82/69
f 57/69/70 64/64/70 70/83/70
f 64/64/71 43/79/71 70/83/71
f 65/68/72 69/80/72 43/79/72
f 65/68/73 62/61/73 69/80/73
f 62/61/74 42/76/74 69/80/74
f 63/67/75 68/77/75 42/76/75
f 63/67/76 60/58/76 68/77/76
f 60/58/77 41/91/77 68/77/77
f 61/66/78 67/74/78 41/73/78
f 61/66/79 58/55/79 67/74/79
f 58/55/80 40/70/80 67/74/80
f 59/65/81 66/71/81 40/70/81
f 59/65/82 56/52/82 66/71/82
f 56/52/83 44/82/83 66/71/83
f 64/64/84 65/68/84 43/79/84
f 64/64/85 55/63/85 65/68/85
f 55/63/86 38/59/86 65/68/86
f 62/61/87 63/67/87 42/76/87
f 62/61/88 54/60/88 63/67/88
f 54/60/89 37/56/89 63/67/89
f 60/58/90 61/96/90 41/91/90
f 60/58/91 52/57/91 61/96/91
f 52/57/92 36/97/92 61/96/92
f 58/55/93 59/65/93 40/70/93
f 58/55/94 48/54/94 59/65/94
f 48/54/95 35/40/95 59/65/95
f 56/52/96 57/69/96 44/82/96
f 56/52/97 49/42/97 57/69/97
f 49/42/98 39/62/98 57/69/98
f 50/51/99 55/63/99 39/62/99
f 50/51/100 53/50/100 55/63/100
f 53/50/101 38/59/101 55/63/101
f 53/48/102 54/60/102 38/59/102
f 53/48/103 51/47/103 54/60/103
f 51/47/104 37/56/104 54/60/104
f 51/45/105 52/57/105 37/56/105
f 51/45/106 46/44/106 52/57/106
f 46/44/107 36/97/107 52/57/107
f 49/42/108 50/98/108 39/62/108
f 49/42/109 47/41/109 50/98/109
f 47/41/110 34/99/110 50/98/110
f 46/39/111 48/54/111 36/53/111
f 46/39/112 47/38/112 48/54/112
f 47/38/113 35/40/113 48/54/113
f 76/100/114 108/101/114 77/102/114
f 77/102/115 108/101/115 78/103/115
f 78/103/116 108/101/116 79/104/116
f 79/104/117 108/101/117 80/105/117
f 80/105/118 108/101/118 81/106/118
f 81/106/119 108/101/119 82/107/119
f 82/107/120 108/101/120 83/108/120
f 83/108/121 108/101/121 84/109/121
f 84/109/122 108/101/122 85/110/122
f 85/110/123 108/101/123 86/111/123
f 86/111/124 108/101/124 87/112/124
f 87/112/125 108/101/125 88/113/125
f 88/113/126 108/101/126 89/114/126
f 89/114/127 108/101/127 90/115/127
f 90/115/128 108/101/128 91/116/128
f 91/116/129 108/101/129 92/117/129
f 92/117/130 108/101/130 93/118/130
f 93/118/131 108/101/131 94/119/131
f 94/119/132 108/101/132 95/120/132
f 95/120/133 108/101/133 96/121/133
f 96/121/134 108/101/134 97/122/134
f 97/122/135 108/101/135 98/123/135
f 98/123/136 108/101/136 99/124/136
f 99/124/137 108/101/137 100/125/137
f 100/125/138 108/101/138 101/126/138
f 101/126/139 108/101/139 102/127/139
f 102/127/140 108/101/140 103/128/140
f 103/128/141 108/101/141 104/129/141
f 104/129/142 108/101/142 105/130/142
f 105/130/143 108/101/143 106/131/143
f 91/132/144 99/133/144 107/134/144
f 106/131/145 108/101/145 107/135/145
f 107/135/146 108/101/146 76/100/146
f 109/136/114 141/137/114 110/138/114
f 110/138/115 141/137/115 111/139/115
f 111/139/116 141/137/116 112/140/116
f 112/140/117 141/137/117 113/141/117
f 113/141/118 141/137/118 114/142/118
f 114/142/119 141/137/119 115/143/119
f 115/143/120 141/137/120 116/144/120
f 116/144/121 141/137/121 117/145/121
f 117/145/122 141/137/122 118/146/122
f 118/146/123 141/137/123 119/147/123
f 119/147/124 141/137/124 120/148/124
f 120/148/125 141/137/125 121/149/125
f 121/149/126 141/137/126 122/150/126
f 122/150/127 141/137/127 123/151/127
f 123/151/128 141/137/128 124/152/128
f 124/152/129 141/137/129 125/153/129
f 125/153/130 141/137/130 126/154/130
f 126/154/131 141/137/131 127/155/131
f 127/155/132 141/137/132 128/156/132
f 128/156/133 141/137/133 129/157/133
f 129/157/134 141/137/134 130/158/134
f 130/158/135 141/137/135 131/159/135
f 131/159/136 141/137/136 132/160/136
f 132/160/137 141/137/137 133/161/137
f 133/161/138 141/137/138 134/162/138
f 134/162/139 141/137/139 135/163/139
f 135/163/140 141/137/140 136/164/140
f 136/164/141 141/137/141 137/165/141
f 137/165/142 141/137/142 138/166/142
f 138/166/143 141/137/143 139/167/143
f 124/168/144 132/169/144 140/170/144
f 139/167/145 141/137/145 140/171/145
f 140/171/146 141/137/146 109/136/146
f 142/172/147 174/173/147 143/174/147
f 143/174/148 174/173/148 144/175/148
f 144/175/149 174/173/149 145/176/149
f 145/176/150 174/173/150 146/177/150
f 146/177/151 174/173/151 147/178/151
f 147/178/152 174/173/152 148/179/152
f 148/179/153 174/173/153 149/180/153
f 149/180/154 174/173/154 150/181/154
f 150/181/155 174/173/155 151/182/155
f 151/182/156 174/173/156 152/183/156
f 152/183/157 174/173/157 153/184/157
f 153/184/158 174/173/158 154/185/158
f 154/185/159 174/173/159 155/186/159
f 155/186/160 174/173/160 156/187/160
f 156/187/161 174/173/161 157/188/161
f 157/188/162 174/173/162 158/189/162
f 158/189/163 174/173/163 159/190/163
f 159/190/164 174/173/164 160/191/164
f 160/191/165 174/173/165 161/192/165
f 161/192/166 174/173/166 162/193/166
f 162/193/167 174/173/167 163/194/167
f 163/194/168 174/173/168 164/195/168
f 164/195/169 174/173/169 165/196/169
f 165/196/170 174/173/170 166/197/170
f 166/197/171 174/173/171 167/198/171
f 167/198/172 174/173/172 168/199/172
f 168/199/173 174/173/173 169/200/173
f 169/200/174 174/173/174 170/201/174
f 170/201/175 174/173/175 171/202/175
f 171/202/176 174/173/176 172/203/176
f 173/204/177 149/205/177 157/206/177
f 172/203/178 174/173/178 173/207/178
f 173/207/179 174/173/179 142/172/179
f 175/208/180 207/209/180 176/210/180
f 176/210/181 207/209/181 177/211/181
f 177/211/182 207/209/182 178/212/182
f 178/212/183 207/209/183 179/213/183
f 179/213/184 207/209/184 180/214/184
f 180/214/185 207/209/185 181/215/185
f 181/215/186 207/209/186 182/216/186
f 182/216/187 207/209/187 183/217/187
f 183/217/188 207/209/188 184/218/188
f 184/218/189 207/209/189 185/219/189
f 185/219/190 207/209/190 186/220/190
f 186/220/191 207/209/191 187/221/191
f 187/221/192 207/209/192 188/222/192
f 188/222/193 207/209/193 189/223/193
f 189/223/194 207/209/194 190/224/194
f 190/224/195 207/209/195 191/225/195
f 191/225/196 207/209/196 192/226/196
f 192/226/197 207/209/197 193/227/197
f 193/227/198 207/209/198 194/228/198
f 194/228/199 207/209/199 195/229/199
f 195/229/200 207/209/200 196/230/200
f 196/230/201 207/209/201 197/231/201
f 197/231/202 207/209/202 198/232/202
f 198/232/203 207/209/203 199/233/203
f 199/233/204 207/209/204 200/234/204
f 200/234/205 207/209/205 201/235/205
f 201/235/206 207/209/206 202/236/206
f 202/236/207 207/209/207 203/237/207
f 203/237/208 207/209/208 204/238/208
f 204/238/209 207/209/209 205/239/209
f 190/240/210 198/241/210 206/242/210
f 205/239/211 207/209/211 206/243/211
f 206/243/212 207/209/212 175/208/212
f 32/35/31 1/244/31 2/245/31
f 2/245/31 3/246/31 4/247/31
f 4/247/31 5/248/31 6/249/31
f 6/249/31 7/250/31 8/251/31
f 8/251/31 9/252/31 10/253/31
f 10/253/31 11/254/31 12/255/31
f 12/255/31 13/256/31 14/257/31
f 14/257/31 15/258/31 16/33/31
f 16/33/31 17/259/31 18/260/31
f 18/260/31 19/261/31 20/262/31
f 20/262/31 21/263/31 22/264/31
f 22/264/31 23/265/31 24/34/31
f 24/34/31 25/266/31 26/267/31
f 26/267/31 27/268/31 28/269/31
f 28/269/31 29/270/31 30/271/31
f 30/271/31 31/272/31 32/35/31
f 32/35/31 2/245/31 8/251/31
f 2/245/31 4/247/31 8/251/31
f 4/247/31 6/249/31 8/251/31
f 8/251/31 10/253/31 16/33/31
f 10/253/31 12/255/31 16/33/31
f 12/255/31 14/257/31 16/33/31
f 16/33/31 18/260/31 24/34/31
f 18/260/31 20/262/31 24/34/31
f 20/262/31 22/264/31 24/34/31
f 24/34/31 26/267/31 32/35/31
f 26/267/31 28/269/31 32/35/31
f 28/269/31 30/271/31 32/35/31
f 32/35/31 8/251/31 16/33/31
f 107/134/144 76/273/144 77/274/144
f 77/274/144 78/275/144 79/276/144
f 79/276/144 80/277/144 83/278/144
f 80/277/144 81/279/144 83/278/144
f 81/279/144 82/280/144 83/278/144
f 83/278/144 84/281/144 85/282/144
f 85/282/144 86/283/144 87/284/144
f 87/284/144 88/285/144 91/132/144
f 88/285/144 89/286/144 91/132/144
f 89/286/144 90/287/144 91/132/144
f 91/132/144 92/288/144 93/289/144
f 93/289/144 94/290/144 95/291/144
f 95/291/144 96/292/144 99/133/144
f 96/292/144 97/293/144 99/133/144
f 97/293/144 98/294/144 99/133/144
f 99/133/144 100/295/144 101/296/144
f 101/296/144 102/297/144 103/298/144
f 103/298/144 104/299/144 105/300/144
f 105/300/144 106/301/144 103/298/144
f 106/301/144 107/134/144 103/298/144
f 107/134/144 77/274/144 83/278/144
f 77/274/144 79/276/144 83/278/144
f 83/278/144 85/282/144 91/132/144
f 85/282/144 87/284/144 91/132/144
f 91/132/144 93/289/144 99/133/144
f 93/289/144 95/291/144 99/133/144
f 99/133/144 101/296/144 103/298/144
f 99/133/144 103/298/144 107/134/144
f 107/134/144 83/278/144 91/132/144
f 140/170/144 109/302/144 110/303/144
f 110/303/144 111/304/144 140/170/144
f 111/304/144 112/305/144 140/170/144
f 112/305/144 113/306/144 114/307/144
f 114/307/144 115/308/144 116/309/144
f 116/309/144 117/310/144 118/311/144
f 118/311/144 119/312/144 120/313/144
f 120/313/144 121/314/144 124/168/144
f 121/314/144 122/315/144 124/168/144
f 122/315/144 123/316/144 124/168/144
f 124/168/144 125/317/144 126/318/144
f 126/318/144 127/319/144 128/320/144
f 128/320/144 129/321/144 132/169/144
f 129/321/144 130/322/144 132/169/144
f 130/322/144 131/323/144 132/169/144
f 132/169/144 133/324/144 136/325/144
f 133/324/144 134/326/144 136/325/144
f 134/326/144 135/327/144 136/325/144
f 136/325/144 137/328/144 138/329/144
f 138/329/144 139/330/144 136/325/144
f 139/330/144 140/170/144 136/325/144
f 112/305/144 114/307/144 140/170/144
f 114/307/144 116/309/144 140/170/144
f 116/309/144 118/311/144 120/313/144
f 124/168/144 126/318/144 132/169/144
f 126/318/144 128/320/144 132/169/144
f 116/309/144 120/313/144 124/168/144
f 132/169/144 136/325/144 140/170/144
f 140/170/144 116/309/144 124/168/144
f 173/204/177 142/331/177 145/332/177
f 142/331/177 143/333/177 145/332/177
f 143/333/177 144/334/177 145/332/177
f 145/332/177 146/335/177 149/205/177
f 146/335/177 147/336/177 149/205/177
f 147/336/177 148/337/177 149/205/177
f 149/205/177 150/338/177 151/339/177
f 151/339/177 152/340/177 149/205/177
f 152/340/177 153/341/177 149/205/177
f 153/341/177 154/342/177 155/343/177
f 155/343/177 156/344/177 157/206/177
f 157/206/177 158/345/177 159/346/177
f 159/346/177 160/347/177 157/206/177
f 160/347/177 161/348/177 157/206/177
f 161/348/177 162/349/177 163/350/177
f 163/350/177 164/351/177 161/348/177
f 164/351/177 165/352/177 161/348/177
f 165/352/177 166/353/177 167/354/177
f 167/354/177 168/355/177 165/352/177
f 168/355/177 169/356/177 165/352/177
f 169/356/177 170/357/177 173/204/177
f 170/357/177 171/358/177 173/204/177
f 171/358/177 172/359/177 173/204/177
f 153/341/177 155/343/177 149/205/177
f 155/343/177 157/206/177 149/205/177
f 173/204/177 145/332/177 149/205/177
f 157/206/177 161/348/177 173/204/177
f 161/348/177 165/352/177 173/204/177
f 165/352/177 169/356/177 173/204/177
f 206/242/210 175/360/210 176/361/210
f 176/361/210 177/362/210 206/242/210
f 177/362/210 178/363/210 206/242/210
f 178/363/210 179/364/210 180/365/210
f 180/365/210 181/366/210 182/367/210
f 182/367/210 183/368/210 184/369/210
f 184/369/210 185/370/210 186/371/210
f 186/371/210 187/372/210 190/240/210
f 187/372/210 188/373/210 190/240/210
f 188/373/210 189/374/210 190/240/210
f 190/240/210 191/375/210 192/376/210
f 192/376/210 193/377/210 194/378/210
f 194/378/210 195/379/210 198/241/210
f 195/379/210 196/380/210 198/241/210
f 196/380/210 197/381/210 198/241/210
f 198/241/210 199/382/210 200/383/210
f 200/383/210 201/384/210 202/385/210
f 202/385/210 203/386/210 204/387/210
f 204/387/210 205/388/210 202/385/210
f 205/388/210 206/242/210 202/385/210
f 178/363/210 180/365/210 206/242/210
f 180/365/210 182/367/210 206/242/210
f 182/367/210 184/369/210 190/240/210
f 184/369/210 186/371/210 190/240/210
f 190/240/210 192/376/210 198/241/210
f 192/376/210 194/378/210 198/241/210
f 198/241/210 200/383/210 202/385/210
f 198/241/210 202/385/210 206/242/210
f 206/242/210 182/367/210 190/240/210
