# Blender 4.1.1
# www.blender.org
mtllib goal.mtl
o 平面
v 0.000000 0.028903 -0.000000
v -0.000000 0.464911 0.000000
v -0.000000 0.246907 -0.435576
v -0.000000 -0.391056 -0.377759
v -0.000000 -0.298711 -0.377759
v 0.073697 -0.391056 -0.370501
v 0.073697 -0.298711 -0.370501
v 0.144562 -0.391056 -0.349004
v 0.144562 -0.298711 -0.349004
v 0.209872 -0.391056 -0.314095
v 0.209872 -0.298711 -0.314095
v 0.267116 -0.391056 -0.267116
v 0.267116 -0.298711 -0.267116
v 0.314095 -0.391056 -0.209872
v 0.314095 -0.298711 -0.209872
v 0.349004 -0.391056 -0.144562
v 0.349004 -0.298711 -0.144562
v 0.370501 -0.391056 -0.073697
v 0.370501 -0.298711 -0.073697
v 0.377759 -0.391056 -0.000000
v 0.377759 -0.298711 -0.000000
v 0.370501 -0.391056 0.073697
v 0.370501 -0.298711 0.073697
v 0.349004 -0.391056 0.144562
v 0.349004 -0.298711 0.144562
v 0.314095 -0.391056 0.209872
v 0.314095 -0.298711 0.209872
v 0.267116 -0.391056 0.267116
v 0.267116 -0.298711 0.267116
v 0.209872 -0.391056 0.314095
v 0.209872 -0.298711 0.314095
v 0.144562 -0.391056 0.349004
v 0.144562 -0.298711 0.349004
v 0.073697 -0.391056 0.370501
v 0.073697 -0.298711 0.370501
v 0.000000 -0.391056 0.377759
v 0.000000 -0.298711 0.377759
v -0.073697 -0.391056 0.370501
v -0.073697 -0.298711 0.370501
v -0.144562 -0.391056 0.349004
v -0.144562 -0.298711 0.349004
v -0.209872 -0.391056 0.314095
v -0.209872 -0.298711 0.314095
v -0.267116 -0.391056 0.267116
v -0.267116 -0.298711 0.267116
v -0.314095 -0.391056 0.209872
v -0.314095 -0.298711 0.209872
v -0.349004 -0.391056 0.144562
v -0.349004 -0.298711 0.144562
v -0.370501 -0.391056 0.073697
v -0.370501 -0.298711 0.073697
v -0.377759 -0.391056 0.000000
v -0.377759 -0.298711 0.000000
v -0.370501 -0.391056 -0.073697
v -0.370501 -0.298711 -0.073697
v -0.349004 -0.391056 -0.144562
v -0.349004 -0.298711 -0.144562
v -0.314095 -0.391056 -0.209872
v -0.314095 -0.298711 -0.209872
v -0.267116 -0.391056 -0.267116
v -0.267116 -0.298711 -0.267116
v -0.209872 -0.391056 -0.314095
v -0.209872 -0.298711 -0.314095
v -0.144562 -0.391056 -0.349004
v -0.144562 -0.298711 -0.349004
v -0.073697 -0.391056 -0.370501
v -0.073697 -0.298711 -0.370501
v -0.000000 -0.370279 -0.052232
v -0.000000 0.459578 -0.052232
v 0.010190 -0.370279 -0.051229
v 0.010190 0.459578 -0.051229
v 0.019988 -0.370279 -0.048256
v 0.019988 0.459578 -0.048256
v 0.029019 -0.370279 -0.043430
v 0.029019 0.459578 -0.043430
v 0.036934 -0.370279 -0.036934
v 0.036934 0.459578 -0.036934
v 0.043430 -0.370279 -0.029019
v 0.043430 0.459578 -0.029019
v 0.048256 -0.370279 -0.019988
v 0.048256 0.459578 -0.019988
v 0.051229 -0.370279 -0.010190
v 0.051229 0.459578 -0.010190
v 0.052232 -0.370279 -0.000000
v 0.052232 0.459578 -0.000000
v 0.051229 -0.370279 0.010190
v 0.051229 0.459578 0.010190
v 0.048256 -0.370279 0.019988
v 0.048256 0.459578 0.019988
v 0.043430 -0.370279 0.029019
v 0.043430 0.459578 0.029019
v 0.036934 -0.370279 0.036934
v 0.036934 0.459578 0.036934
v 0.029019 -0.370279 0.043430
v 0.029019 0.459578 0.043430
v 0.019988 -0.370279 0.048256
v 0.019988 0.459578 0.048256
v 0.010190 -0.370279 0.051229
v 0.010190 0.459578 0.051229
v 0.000000 -0.370279 0.052232
v 0.000000 0.459578 0.052232
v -0.010190 -0.370279 0.051229
v -0.010190 0.459578 0.051229
v -0.019988 -0.370279 0.048256
v -0.019988 0.459578 0.048256
v -0.029019 -0.370279 0.043430
v -0.029019 0.459578 0.043430
v -0.036934 -0.370279 0.036934
v -0.036934 0.459578 0.036934
v -0.043430 -0.370279 0.029019
v -0.043430 0.459578 0.029019
v -0.048256 -0.370279 0.019988
v -0.048256 0.459578 0.019988
v -0.051229 -0.370279 0.010190
v -0.051229 0.459578 0.010190
v -0.052232 -0.370279 0.000000
v -0.052232 0.459578 0.000000
v -0.051229 -0.370279 -0.010190
v -0.051229 0.459578 -0.010190
v -0.048256 -0.370279 -0.019988
v -0.048256 0.459578 -0.019988
v -0.043430 -0.370279 -0.029019
v -0.043430 0.459578 -0.029019
v -0.036934 -0.370279 -0.036934
v -0.036934 0.459578 -0.036934
v -0.029019 -0.370279 -0.043430
v -0.029019 0.459578 -0.043430
v -0.019988 -0.370279 -0.048256
v -0.019988 0.459578 -0.048256
v -0.010190 -0.370279 -0.051229
v -0.010190 0.459578 -0.051229
vn 1.0000 -0.0000 -0.0000
vn 0.0980 -0.0000 -0.9952
vn 0.2903 -0.0000 -0.9569
vn 0.4714 -0.0000 -0.8819
vn 0.6344 -0.0000 -0.7730
vn 0.7730 -0.0000 -0.6344
vn 0.8819 -0.0000 -0.4714
vn 0.9569 -0.0000 -0.2903
vn 0.9952 -0.0000 -0.0980
vn 0.9952 -0.0000 0.0980
vn 0.9569 -0.0000 0.2903
vn 0.8819 -0.0000 0.4714
vn 0.7730 -0.0000 0.6344
vn 0.6344 -0.0000 0.7730
vn 0.4714 -0.0000 0.8819
vn 0.2903 -0.0000 0.9569
vn 0.0980 -0.0000 0.9952
vn -0.0980 -0.0000 0.9952
vn -0.2903 -0.0000 0.9569
vn -0.4714 -0.0000 0.8819
vn -0.6344 -0.0000 0.7730
vn -0.7730 -0.0000 0.6344
vn -0.8819 -0.0000 0.4714
vn -0.9569 -0.0000 0.2903
vn -0.9952 -0.0000 0.0980
vn -0.9952 -0.0000 -0.0980
vn -0.9569 -0.0000 -0.2903
vn -0.8819 -0.0000 -0.4714
vn -0.7730 -0.0000 -0.6344
vn -0.6344 -0.0000 -0.7730
vn -0.4714 -0.0000 -0.8819
vn -0.0000 1.0000 -0.0000
vn -0.2903 -0.0000 -0.9569
vn -0.0980 -0.0000 -0.9952
vn -0.0000 -1.0000 -0.0000
vt 0.488832 0.010369
vt 0.488832 0.488832
vt 0.010369 0.488832
vt 0.488832 0.748801
vt 0.473880 0.509569
vt 0.488832 0.509569
vt 0.473880 0.748801
vt 0.458928 0.509569
vt 0.458928 0.748801
vt 0.443976 0.509569
vt 0.443976 0.748801
vt 0.429024 0.509569
vt 0.429024 0.748801
vt 0.414072 0.509569
vt 0.414072 0.748801
vt 0.399120 0.509569
vt 0.399120 0.748801
vt 0.384168 0.509569
vt 0.384168 0.748801
vt 0.369216 0.509569
vt 0.369216 0.748801
vt 0.354264 0.509569
vt 0.354264 0.748801
vt 0.339312 0.509569
vt 0.339312 0.748801
vt 0.324360 0.509569
vt 0.324360 0.748801
vt 0.309408 0.509569
vt 0.309408 0.748801
vt 0.294456 0.509569
vt 0.294456 0.748801
vt 0.279504 0.509569
vt 0.279504 0.748801
vt 0.264552 0.509569
vt 0.264552 0.748801
vt 0.249600 0.509569
vt 0.249600 0.748801
vt 0.234648 0.509569
vt 0.234648 0.748801
vt 0.219696 0.509569
vt 0.219696 0.748801
vt 0.204744 0.509569
vt 0.204744 0.748801
vt 0.189792 0.509569
vt 0.189792 0.748801
vt 0.174840 0.509569
vt 0.174840 0.748801
vt 0.159888 0.509569
vt 0.159888 0.748801
vt 0.144936 0.509569
vt 0.144936 0.748801
vt 0.129985 0.509569
vt 0.129985 0.748801
vt 0.115033 0.509569
vt 0.115033 0.748801
vt 0.100081 0.509569
vt 0.100081 0.748801
vt 0.085129 0.509569
vt 0.085129 0.748801
vt 0.070177 0.509569
vt 0.070177 0.748801
vt 0.055225 0.509569
vt 0.055225 0.748801
vt 0.040273 0.509569
vt 0.668344 0.279079
vt 0.730490 0.341225
vt 0.668344 0.491259
vt 0.040273 0.748801
vt 0.025321 0.509569
vt 0.025321 0.748801
vt 0.010369 0.509569
vt 0.646803 0.522944
vt 0.511776 0.613166
vt 0.601998 0.748193
vt 0.988032 0.249600
vt 0.973080 0.010369
vt 0.988032 0.010369
vt 0.973080 0.249600
vt 0.958128 0.010369
vt 0.958128 0.249600
vt 0.943176 0.010369
vt 0.943176 0.249600
vt 0.928224 0.010369
vt 0.928224 0.249600
vt 0.913272 0.010369
vt 0.913272 0.249600
vt 0.898320 0.010369
vt 0.898320 0.249600
vt 0.883368 0.010369
vt 0.883368 0.249600
vt 0.868416 0.010369
vt 0.868416 0.249600
vt 0.853464 0.010369
vt 0.853464 0.249600
vt 0.838512 0.010369
vt 0.838512 0.249600
vt 0.823561 0.010369
vt 0.823561 0.249600
vt 0.808609 0.010369
vt 0.808609 0.249600
vt 0.793657 0.010369
vt 0.793657 0.249600
vt 0.778705 0.010369
vt 0.778705 0.249600
vt 0.763753 0.010369
vt 0.763753 0.249600
vt 0.748801 0.010369
vt 0.748801 0.249600
vt 0.733849 0.010369
vt 0.733849 0.249600
vt 0.718897 0.010369
vt 0.718897 0.249600
vt 0.703945 0.010369
vt 0.703945 0.249600
vt 0.688993 0.010369
vt 0.688993 0.249600
vt 0.674041 0.010369
vt 0.674041 0.249600
vt 0.659089 0.010369
vt 0.659089 0.249600
vt 0.644137 0.010369
vt 0.644137 0.249600
vt 0.629185 0.010369
vt 0.629185 0.249600
vt 0.614233 0.010369
vt 0.614233 0.249600
vt 0.599281 0.010369
vt 0.599281 0.249600
vt 0.584329 0.010369
vt 0.584329 0.249600
vt 0.569377 0.010369
vt 0.569377 0.249600
vt 0.554425 0.010369
vt 0.554425 0.249600
vt 0.539473 0.010369
vt 0.830856 0.279079
vt 0.980890 0.341225
vt 0.918744 0.491259
vt 0.539473 0.249600
vt 0.524521 0.010369
vt 0.524521 0.249600
vt 0.509569 0.010369
vt 0.897203 0.522944
vt 0.762176 0.613166
vt 0.852398 0.748193
vt 0.646803 0.497794
vt 0.580456 0.491259
vt 0.624400 0.500000
vt 0.601998 0.497794
vt 0.560604 0.480647
vt 0.543203 0.466367
vt 0.528922 0.448966
vt 0.518310 0.429113
vt 0.511776 0.407571
vt 0.518310 0.341225
vt 0.509569 0.385169
vt 0.511776 0.362766
vt 0.528922 0.321372
vt 0.543203 0.303971
vt 0.560604 0.289690
vt 0.580456 0.279079
vt 0.601998 0.272544
vt 0.624400 0.270338
vt 0.646803 0.272544
vt 0.688197 0.289690
vt 0.705598 0.303971
vt 0.719879 0.321372
vt 0.737025 0.362766
vt 0.730490 0.429113
vt 0.739231 0.385169
vt 0.737025 0.407571
vt 0.719879 0.448966
vt 0.705598 0.466367
vt 0.688197 0.480647
vt 0.010369 0.748801
vt 0.624400 0.750400
vt 0.646803 0.748193
vt 0.668344 0.741659
vt 0.688197 0.731047
vt 0.705598 0.716767
vt 0.719879 0.699365
vt 0.730490 0.679513
vt 0.737025 0.657971
vt 0.739231 0.635569
vt 0.737025 0.613166
vt 0.730490 0.591625
vt 0.719879 0.571772
vt 0.705598 0.554371
vt 0.688197 0.540090
vt 0.668344 0.529479
vt 0.624400 0.520738
vt 0.601998 0.522944
vt 0.580456 0.529479
vt 0.560604 0.540090
vt 0.543203 0.554371
vt 0.528922 0.571772
vt 0.518310 0.591625
vt 0.509569 0.635569
vt 0.511776 0.657971
vt 0.518310 0.679513
vt 0.528922 0.699365
vt 0.543203 0.716767
vt 0.560604 0.731047
vt 0.580456 0.741659
vt 0.897203 0.497794
vt 0.830856 0.491259
vt 0.874800 0.500000
vt 0.852398 0.497794
vt 0.811003 0.480647
vt 0.793602 0.466367
vt 0.779322 0.448966
vt 0.768710 0.429113
vt 0.762176 0.407571
vt 0.768710 0.341225
vt 0.759969 0.385169
vt 0.762176 0.362766
vt 0.779322 0.321372
vt 0.793602 0.303971
vt 0.811003 0.289690
vt 0.852398 0.272544
vt 0.918744 0.279079
vt 0.874800 0.270338
vt 0.897203 0.272544
vt 0.938597 0.289690
vt 0.955998 0.303971
vt 0.970279 0.321372
vt 0.987425 0.362766
vt 0.980890 0.429113
vt 0.989631 0.385169
vt 0.987425 0.407571
vt 0.970279 0.448966
vt 0.955998 0.466367
vt 0.938597 0.480647
vt 0.509569 0.249600
vt 0.874800 0.750400
vt 0.897203 0.748193
vt 0.918744 0.741659
vt 0.938597 0.731047
vt 0.955998 0.716767
vt 0.987425 0.657971
vt 0.970279 0.699365
vt 0.980890 0.679513
vt 0.989631 0.635569
vt 0.987425 0.613166
vt 0.980890 0.591625
vt 0.970279 0.571772
vt 0.955998 0.554371
vt 0.938597 0.540090
vt 0.918744 0.529479
vt 0.874800 0.520738
vt 0.852398 0.522944
vt 0.830856 0.529479
vt 0.811003 0.540090
vt 0.793602 0.554371
vt 0.779322 0.571772
vt 0.768710 0.591625
vt 0.759969 0.635569
vt 0.762176 0.657971
vt 0.768710 0.679513
vt 0.779322 0.699365
vt 0.793602 0.716767
vt 0.811003 0.731047
vt 0.830856 0.741659
s 0
usemtl マテリアル
f 1/1/1 3/2/1 2/3/1
f 5/4/2 6/5/2 4/6/2
f 7/7/3 8/8/3 6/5/3
f 9/9/4 10/10/4 8/8/4
f 11/11/5 12/12/5 10/10/5
f 13/13/6 14/14/6 12/12/6
f 15/15/7 16/16/7 14/14/7
f 17/17/8 18/18/8 16/16/8
f 19/19/9 20/20/9 18/18/9
f 21/21/10 22/22/10 20/20/10
f 23/23/11 24/24/11 22/22/11
f 25/25/12 26/26/12 24/24/12
f 27/27/13 28/28/13 26/26/13
f 29/29/14 30/30/14 28/28/14
f 31/31/15 32/32/15 30/30/15
f 33/33/16 34/34/16 32/32/16
f 35/35/17 36/36/17 34/34/17
f 37/37/18 38/38/18 36/36/18
f 39/39/19 40/40/19 38/38/19
f 41/41/20 42/42/20 40/40/20
f 43/43/21 44/44/21 42/42/21
f 45/45/22 46/46/22 44/44/22
f 47/47/23 48/48/23 46/46/23
f 49/49/24 50/50/24 48/48/24
f 51/51/25 52/52/25 50/50/25
f 53/53/26 54/54/26 52/52/26
f 55/55/27 56/56/27 54/54/27
f 57/57/28 58/58/28 56/56/28
f 59/59/29 60/60/29 58/58/29
f 61/61/30 62/62/30 60/60/30
f 63/63/31 64/64/31 62/62/31
f 33/65/32 25/66/32 9/67/32
f 65/68/33 66/69/33 64/64/33
f 67/70/34 4/71/34 66/69/34
f 34/72/35 50/73/35 66/74/35
f 69/75/2 70/76/2 68/77/2
f 71/78/3 72/79/3 70/76/3
f 73/80/4 74/81/4 72/79/4
f 75/82/5 76/83/5 74/81/5
f 77/84/6 78/85/6 76/83/6
f 79/86/7 80/87/7 78/85/7
f 81/88/8 82/89/8 80/87/8
f 83/90/9 84/91/9 82/89/9
f 85/92/10 86/93/10 84/91/10
f 87/94/11 88/95/11 86/93/11
f 89/96/12 90/97/12 88/95/12
f 91/98/13 92/99/13 90/97/13
f 93/100/14 94/101/14 92/99/14
f 95/102/15 96/103/15 94/101/15
f 97/104/16 98/105/16 96/103/16
f 99/106/17 100/107/17 98/105/17
f 101/108/18 102/109/18 100/107/18
f 103/110/19 104/111/19 102/109/19
f 105/112/20 106/113/20 104/111/20
f 107/114/21 108/115/21 106/113/21
f 109/116/22 110/117/22 108/115/22
f 111/118/23 112/119/23 110/117/23
f 113/120/24 114/121/24 112/119/24
f 115/122/25 116/123/25 114/121/25
f 117/124/26 118/125/26 116/123/26
f 119/126/27 120/127/27 118/125/27
f 121/128/28 122/129/28 120/127/28
f 123/130/29 124/131/29 122/129/29
f 125/132/30 126/133/30 124/131/30
f 127/134/31 128/135/31 126/133/31
f 105/136/32 89/137/32 73/138/32
f 129/139/33 130/140/33 128/135/33
f 131/141/34 68/142/34 130/140/34
f 98/143/35 114/144/35 130/145/35
f 5/4/2 7/7/2 6/5/2
f 7/7/3 9/9/3 8/8/3
f 9/9/4 11/11/4 10/10/4
f 11/11/5 13/13/5 12/12/5
f 13/13/6 15/15/6 14/14/6
f 15/15/7 17/17/7 16/16/7
f 17/17/8 19/19/8 18/18/8
f 19/19/9 21/21/9 20/20/9
f 21/21/10 23/23/10 22/22/10
f 23/23/11 25/25/11 24/24/11
f 25/25/12 27/27/12 26/26/12
f 27/27/13 29/29/13 28/28/13
f 29/29/14 31/31/14 30/30/14
f 31/31/15 33/33/15 32/32/15
f 33/33/16 35/35/16 34/34/16
f 35/35/17 37/37/17 36/36/17
f 37/37/18 39/39/18 38/38/18
f 39/39/19 41/41/19 40/40/19
f 41/41/20 43/43/20 42/42/20
f 43/43/21 45/45/21 44/44/21
f 45/45/22 47/47/22 46/46/22
f 47/47/23 49/49/23 48/48/23
f 49/49/24 51/51/24 50/50/24
f 51/51/25 53/53/25 52/52/25
f 53/53/26 55/55/26 54/54/26
f 55/55/27 57/57/27 56/56/27
f 57/57/28 59/59/28 58/58/28
f 59/59/29 61/61/29 60/60/29
f 61/61/30 63/63/30 62/62/30
f 63/63/31 65/68/31 64/64/31
f 9/67/32 7/146/32 65/147/32
f 7/146/32 5/148/32 65/147/32
f 5/148/32 67/149/32 65/147/32
f 65/147/32 63/150/32 61/151/32
f 61/151/32 59/152/32 57/153/32
f 57/153/32 55/154/32 49/155/32
f 55/154/32 53/156/32 49/155/32
f 53/156/32 51/157/32 49/155/32
f 49/155/32 47/158/32 45/159/32
f 45/159/32 43/160/32 41/161/32
f 41/161/32 39/162/32 33/65/32
f 39/162/32 37/163/32 33/65/32
f 37/163/32 35/164/32 33/65/32
f 33/65/32 31/165/32 29/166/32
f 29/166/32 27/167/32 25/66/32
f 25/66/32 23/168/32 17/169/32
f 23/168/32 21/170/32 17/169/32
f 21/170/32 19/171/32 17/169/32
f 17/169/32 15/172/32 13/173/32
f 13/173/32 11/174/32 9/67/32
f 65/147/32 61/151/32 57/153/32
f 49/155/32 45/159/32 57/153/32
f 45/159/32 41/161/32 57/153/32
f 33/65/32 29/166/32 25/66/32
f 17/169/32 13/173/32 25/66/32
f 13/173/32 9/67/32 25/66/32
f 9/67/32 65/147/32 41/161/32
f 65/147/32 57/153/32 41/161/32
f 41/161/32 33/65/32 9/67/32
f 65/68/33 67/70/33 66/69/33
f 67/70/34 5/175/34 4/71/34
f 66/74/35 4/176/35 6/177/35
f 6/177/35 8/178/35 66/74/35
f 8/178/35 10/179/35 66/74/35
f 10/179/35 12/180/35 14/181/35
f 14/181/35 16/182/35 18/183/35
f 18/183/35 20/184/35 22/185/35
f 22/185/35 24/186/35 26/187/35
f 26/187/35 28/188/35 30/189/35
f 30/189/35 32/190/35 26/187/35
f 32/190/35 34/72/35 26/187/35
f 34/72/35 36/191/35 38/192/35
f 38/192/35 40/193/35 34/72/35
f 40/193/35 42/194/35 34/72/35
f 42/194/35 44/195/35 46/196/35
f 46/196/35 48/197/35 50/73/35
f 50/73/35 52/198/35 54/199/35
f 54/199/35 56/200/35 58/201/35
f 58/201/35 60/202/35 62/203/35
f 62/203/35 64/204/35 58/201/35
f 64/204/35 66/74/35 58/201/35
f 10/179/35 14/181/35 66/74/35
f 14/181/35 18/183/35 66/74/35
f 18/183/35 22/185/35 34/72/35
f 22/185/35 26/187/35 34/72/35
f 42/194/35 46/196/35 34/72/35
f 46/196/35 50/73/35 34/72/35
f 50/73/35 54/199/35 66/74/35
f 54/199/35 58/201/35 66/74/35
f 66/74/35 18/183/35 34/72/35
f 69/75/2 71/78/2 70/76/2
f 71/78/3 73/80/3 72/79/3
f 73/80/4 75/82/4 74/81/4
f 75/82/5 77/84/5 76/83/5
f 77/84/6 79/86/6 78/85/6
f 79/86/7 81/88/7 80/87/7
f 81/88/8 83/90/8 82/89/8
f 83/90/9 85/92/9 84/91/9
f 85/92/10 87/94/10 86/93/10
f 87/94/11 89/96/11 88/95/11
f 89/96/12 91/98/12 90/97/12
f 91/98/13 93/100/13 92/99/13
f 93/100/14 95/102/14 94/101/14
f 95/102/15 97/104/15 96/103/15
f 97/104/16 99/106/16 98/105/16
f 99/106/17 101/108/17 100/107/17
f 101/108/18 103/110/18 102/109/18
f 103/110/19 105/112/19 104/111/19
f 105/112/20 107/114/20 106/113/20
f 107/114/21 109/116/21 108/115/21
f 109/116/22 111/118/22 110/117/22
f 111/118/23 113/120/23 112/119/23
f 113/120/24 115/122/24 114/121/24
f 115/122/25 117/124/25 116/123/25
f 117/124/26 119/126/26 118/125/26
f 119/126/27 121/128/27 120/127/27
f 121/128/28 123/130/28 122/129/28
f 123/130/29 125/132/29 124/131/29
f 125/132/30 127/134/30 126/133/30
f 127/134/31 129/139/31 128/135/31
f 73/138/32 71/205/32 129/206/32
f 71/205/32 69/207/32 129/206/32
f 69/207/32 131/208/32 129/206/32
f 129/206/32 127/209/32 125/210/32
f 125/210/32 123/211/32 121/212/32
f 121/212/32 119/213/32 113/214/32
f 119/213/32 117/215/32 113/214/32
f 117/215/32 115/216/32 113/214/32
f 113/214/32 111/217/32 109/218/32
f 109/218/32 107/219/32 105/136/32
f 105/136/32 103/220/32 97/221/32
f 103/220/32 101/222/32 97/221/32
f 101/222/32 99/223/32 97/221/32
f 97/221/32 95/224/32 93/225/32
f 93/225/32 91/226/32 89/137/32
f 89/137/32 87/227/32 81/228/32
f 87/227/32 85/229/32 81/228/32
f 85/229/32 83/230/32 81/228/32
f 81/228/32 79/231/32 77/232/32
f 77/232/32 75/233/32 73/138/32
f 129/206/32 125/210/32 73/138/32
f 125/210/32 121/212/32 73/138/32
f 113/214/32 109/218/32 121/212/32
f 109/218/32 105/136/32 121/212/32
f 97/221/32 93/225/32 105/136/32
f 93/225/32 89/137/32 105/136/32
f 81/228/32 77/232/32 89/137/32
f 77/232/32 73/138/32 89/137/32
f 73/138/32 121/212/32 105/136/32
f 129/139/33 131/141/33 130/140/33
f 131/141/34 69/234/34 68/142/34
f 130/145/35 68/235/35 70/236/35
f 70/236/35 72/237/35 74/238/35
f 74/238/35 76/239/35 82/240/35
f 76/239/35 78/241/35 82/240/35
f 78/241/35 80/242/35 82/240/35
f 82/240/35 84/243/35 86/244/35
f 86/244/35 88/245/35 90/246/35
f 90/246/35 92/247/35 94/248/35
f 94/248/35 96/249/35 98/143/35
f 98/143/35 100/250/35 102/251/35
f 102/251/35 104/252/35 106/253/35
f 106/253/35 108/254/35 114/144/35
f 108/254/35 110/255/35 114/144/35
f 110/255/35 112/256/35 114/144/35
f 114/144/35 116/257/35 118/258/35
f 118/258/35 120/259/35 122/260/35
f 122/260/35 124/261/35 126/262/35
f 126/262/35 128/263/35 130/145/35
f 130/145/35 70/236/35 82/240/35
f 70/236/35 74/238/35 82/240/35
f 82/240/35 86/244/35 90/246/35
f 90/246/35 94/248/35 82/240/35
f 94/248/35 98/143/35 82/240/35
f 98/143/35 102/251/35 114/144/35
f 102/251/35 106/253/35 114/144/35
f 114/144/35 118/258/35 122/260/35
f 122/260/35 126/262/35 114/144/35
f 126/262/35 130/145/35 114/144/35
f 130/145/35 82/240/35 98/143/35
